<?xml version="1.0" standalone="no"?>
<!DOCTYPE svg PUBLIC "-//W3C//DTD SVG 20010904//EN"
 "http://www.w3.org/TR/2001/REC-SVG-20010904/DTD/svg10.dtd">
<svg version="1.0" xmlns="http://www.w3.org/2000/svg"
 width="860.000000pt" height="860.000000pt" viewBox="0 0 860.000000 860.000000"
 preserveAspectRatio="xMidYMid meet">
<metadata>
Created by potrace 1.14, written by Peter Selinger 2001-2017
</metadata>
<g transform="translate(0.000000,860.000000) scale(0.100000,-0.100000)"
fill="#000000" stroke="none">
<path d="M4197 8133 c18 -2 50 -2 70 0 21 2 7 4 -32 4 -38 0 -55 -2 -38 -4z"/>
<path d="M3988 8123 c7 -3 16 -2 19 1 4 3 -2 6 -13 5 -11 0 -14 -3 -6 -6z"/>
<path d="M4468 8123 c7 -3 16 -2 19 1 4 3 -2 6 -13 5 -11 0 -14 -3 -6 -6z"/>
<path d="M3855 8065 c-179 -20 -387 -59 -476 -89 l-74 -26 60 7 c68 8 1045 7
1480 -1 255 -5 286 -4 260 8 -45 21 -259 65 -425 87 -199 27 -642 34 -825 14z"/>
<path d="M5573 7933 c15 -2 39 -2 55 0 15 2 2 4 -28 4 -30 0 -43 -2 -27 -4z"/>
<path d="M3445 7734 c-161 -9 -518 -46 -625 -65 -143 -25 -241 -57 -350 -116
-171 -91 -216 -148 -230 -290 -5 -48 -18 -153 -29 -232 -26 -177 -28 -434 -7
-816 31 -567 39 -805 33 -1054 -9 -394 8 -582 77 -848 67 -260 165 -304 726
-324 288 -11 1858 -13 2090 -4 365 15 764 79 950 152 190 75 304 205 332 379
16 94 16 755 0 809 -6 22 -14 147 -16 280 -8 386 -44 1273 -56 1361 -5 44 -10
102 -10 130 0 55 -20 154 -45 229 -39 116 -151 243 -260 297 -151 76 -245 86
-855 98 -599 11 -1626 19 -1725 14z m24 -452 c19 -18 30 -42 34 -72 4 -25 14
-102 23 -172 l17 -128 186 0 c102 0 202 -5 222 -10 104 -29 87 -169 -23 -199
-24 -6 -106 -18 -183 -26 -76 -9 -141 -18 -143 -19 -2 -2 4 -69 13 -147 20
-172 15 -237 -22 -273 -58 -59 -145 -24 -177 70 -8 24 -27 110 -43 190 l-28
147 -235 -7 c-257 -7 -246 -9 -312 52 -40 37 -39 91 3 126 17 14 40 26 52 26
12 0 103 7 202 15 99 8 194 15 211 15 l31 0 7 187 c4 103 12 195 17 205 13 24
58 47 92 48 18 0 39 -10 56 -28z m2206 -323 c121 -14 164 -45 149 -105 -8 -32
-75 -65 -174 -88 -99 -23 -862 -70 -904 -56 -91 30 -98 133 -12 164 40 15 412
57 836 95 8 0 56 -4 105 -10z m-2553 -1426 c31 -21 145 -117 253 -213 108 -96
200 -176 204 -178 4 -1 81 88 170 198 90 111 174 206 187 212 51 24 115 -29
101 -83 -4 -13 -70 -116 -147 -229 l-141 -205 23 -15 c133 -88 383 -311 414
-372 8 -15 14 -48 14 -74 l0 -46 -62 4 c-58 4 -77 13 -228 100 -236 136 -242
140 -276 165 -17 13 -33 23 -36 23 -3 0 -63 -73 -134 -162 -254 -321 -321
-371 -403 -302 -37 31 -41 73 -12 119 10 17 100 129 199 250 l180 220 -66 65
c-37 35 -145 141 -241 234 l-173 170 -5 57 c-6 57 -5 58 28 78 50 31 86 26
151 -16z m2611 -147 c18 -7 45 -28 62 -45 23 -25 27 -35 19 -49 -23 -37 -72
-59 -146 -66 -391 -37 -748 -57 -794 -44 -16 4 -43 22 -59 38 -32 34 -30 48
16 83 28 20 235 47 534 67 157 11 326 25 333 29 1 0 17 -5 35 -13z m52 -328
c29 -15 55 -50 55 -75 0 -30 -50 -69 -107 -82 -26 -6 -154 -20 -283 -31 -129
-12 -269 -25 -311 -29 -107 -11 -327 -2 -361 15 -15 8 -35 26 -44 40 -16 24
-16 26 7 50 13 14 32 30 41 35 16 9 273 36 683 74 94 8 184 17 200 19 38 4 94
-4 120 -16z"/>
<path d="M1869 7262 c-24 -16 -64 -46 -88 -66 -41 -35 -111 -76 -127 -76 -4 0
1 10 12 23 10 13 7 10 -8 -5 -15 -15 -36 -28 -45 -28 -10 0 -135 29 -278 65
-143 35 -263 61 -267 57 -9 -9 -811 -2200 -863 -2357 -6 -18 -5 -18 13 3 11
12 24 22 29 22 4 0 51 25 103 55 52 30 96 52 98 50 2 -2 -6 -66 -17 -142 -62
-414 -59 -814 10 -1223 48 -284 188 -748 276 -914 10 -17 16 -34 15 -38 -1 -5
3 -8 9 -8 5 0 7 -4 4 -10 -3 -5 -1 -10 5 -10 6 0 8 -4 5 -10 -3 -5 -1 -10 6
-10 7 0 10 -3 6 -6 -7 -8 41 -106 57 -116 6 -4 8 -8 3 -8 -4 0 2 -9 14 -21 11
-11 18 -27 15 -34 -3 -8 0 -17 6 -21 7 -5 8 -2 4 7 -4 8 0 5 8 -6 9 -11 14
-25 11 -33 -2 -7 -1 -10 5 -7 5 3 20 -14 34 -38 29 -49 32 -62 14 -51 -8 4
-10 3 -5 -2 5 -5 13 -9 17 -9 5 0 49 -56 97 -125 316 -446 652 -771 1100
-1064 420 -274 907 -468 1393 -556 504 -90 933 -85 1444 20 82 16 158 30 169
30 12 0 66 -44 131 -108 190 -184 337 -286 593 -409 l151 -73 84 1 c78 1 80 2
36 10 -64 13 -255 90 -358 146 -495 267 -858 723 -999 1255 -149 561 -51 1169
264 1634 193 285 424 495 725 661 52 29 91 53 87 53 -4 0 -58 -9 -120 -20
-119 -20 -310 -43 -522 -61 -302 -27 -1595 -20 -2248 11 -232 11 -447 40 -546
74 -160 54 -261 146 -339 308 -120 249 -162 541 -146 1018 12 367 10 919 -4
1145 -15 262 -17 389 -9 748 5 236 4 297 -6 297 -7 0 -33 -13 -58 -28z"/>
<path d="M6575 7138 c3 -57 10 -155 16 -218 18 -228 49 -762 81 -1425 7 -143
12 -422 13 -620 0 -429 -6 -470 -87 -634 -59 -119 -149 -220 -258 -291 -60
-38 -62 -41 -30 -35 305 55 552 55 825 0 306 -62 623 -212 875 -416 58 -47 62
-49 32 -15 -24 28 -31 43 -26 59 3 12 3 19 -1 15 -3 -3 -16 3 -27 14 -20 20
-20 20 6 206 43 323 51 487 32 713 -15 188 -36 355 -56 442 -11 49 -6 67 125
497 136 445 129 415 113 446 -12 23 -47 37 -328 130 -173 57 -320 107 -326
111 -5 5 -43 62 -83 128 -173 287 -423 594 -662 812 -108 99 -214 183 -231
183 -6 0 -7 -39 -3 -102z"/>
<path d="M8084 4285 c0 -77 2 -107 3 -67 2 40 2 103 0 140 -2 37 -3 4 -3 -73z"/>
<path d="M8155 3370 c38 -38 72 -70 74 -70 3 0 -26 32 -64 70 -38 39 -72 70
-74 70 -3 0 26 -31 64 -70z"/>
<path d="M6185 3270 c-27 -11 -195 -184 -195 -201 0 -25 30 -59 53 -59 12 0
41 19 64 42 l43 42 0 -227 0 -227 -60 0 c-62 0 -100 -21 -100 -55 0 -8 9 -24
20 -35 18 -18 33 -20 169 -20 162 0 181 6 181 55 0 33 -26 55 -66 55 l-34 0 0
298 c0 306 -2 321 -40 334 -8 3 -24 2 -35 -2z"/>
<path d="M6775 3270 c-33 -13 -195 -185 -195 -207 0 -24 30 -53 54 -53 9 0 37
19 61 41 l45 42 0 -227 0 -226 -58 0 c-66 0 -102 -19 -102 -55 0 -46 31 -55
185 -55 111 0 145 3 163 16 48 33 13 94 -55 94 l-33 0 -2 306 c-3 294 -4 307
-23 319 -12 8 -28 10 -40 5z"/>
<path d="M5496 3246 c-21 -13 -49 -41 -62 -62 -23 -38 -24 -45 -24 -277 0
-217 2 -241 20 -277 66 -129 261 -125 326 7 17 34 19 63 19 268 0 227 0 231
-25 275 -49 87 -168 118 -254 66z m149 -101 c25 -24 25 -24 25 -238 0 -202 -1
-216 -21 -241 -28 -35 -80 -36 -114 -1 -25 24 -25 24 -25 240 0 216 0 216 25
240 15 16 36 25 55 25 19 0 40 -9 55 -25z"/>
<path d="M7275 3257 c-42 -19 -93 -80 -100 -119 -3 -18 -5 -135 -3 -259 3
-221 3 -226 28 -262 62 -91 188 -109 271 -40 62 53 69 83 69 328 0 250 -7 279
-75 331 -30 23 -50 29 -99 31 -37 2 -73 -2 -91 -10z m129 -108 l26 -20 0 -222
c0 -213 -1 -222 -22 -244 -27 -29 -77 -30 -109 -4 -24 19 -24 23 -27 222 -2
112 -1 213 3 226 14 58 81 80 129 42z"/>
<path d="M7846 3246 c-21 -13 -49 -41 -62 -62 -23 -38 -24 -45 -24 -277 0
-219 2 -241 20 -277 48 -93 176 -125 262 -64 78 55 83 76 83 339 0 227 0 231
-25 275 -49 87 -168 118 -254 66z m149 -101 c25 -24 25 -24 25 -238 0 -202 -1
-216 -21 -241 -28 -35 -80 -36 -114 -1 -25 24 -25 24 -25 240 0 216 0 216 25
240 15 16 36 25 55 25 19 0 40 -9 55 -25z"/>
<path d="M8360 3126 c0 -2 8 -10 18 -17 15 -13 16 -12 3 4 -13 16 -21 21 -21
13z"/>
<path d="M8429 3030 c12 -19 33 -56 48 -83 14 -26 28 -45 30 -43 5 4 -58 113
-82 141 -9 11 -7 4 4 -15z"/>
<path d="M8593 2745 c0 -22 2 -30 4 -17 2 12 2 30 0 40 -3 9 -5 -1 -4 -23z"/>
<path d="M5503 2227 c-67 -67 -93 -100 -93 -118 0 -31 10 -45 37 -53 17 -6 32
2 66 33 24 23 47 41 51 41 3 0 6 -101 6 -225 l0 -225 -61 0 c-76 0 -99 -12
-99 -50 0 -51 27 -60 177 -60 72 0 143 4 156 9 33 13 43 46 23 76 -13 20 -25
25 -56 25 l-40 0 0 304 c0 304 0 305 -22 320 -12 9 -29 16 -37 16 -8 0 -57
-42 -108 -93z"/>
<path d="M6134 2311 c-44 -11 -89 -45 -116 -89 -22 -35 -23 -48 -26 -246 -4
-225 3 -279 43 -332 76 -99 250 -83 304 29 19 40 21 60 21 277 0 232 0 234
-25 277 -39 65 -127 102 -201 84z m101 -126 c25 -24 25 -24 25 -240 0 -216 0
-216 -25 -240 -15 -16 -36 -25 -55 -25 -19 0 -40 9 -55 25 -25 24 -25 24 -25
240 0 216 0 216 25 240 15 16 36 25 55 25 19 0 40 -9 55 -25z"/>
<path d="M6679 2223 c-105 -103 -118 -129 -77 -157 33 -23 44 -20 93 25 l45
42 0 -227 0 -226 -63 0 c-71 0 -101 -19 -95 -61 5 -39 42 -49 183 -49 145 0
178 10 183 51 4 37 -22 59 -69 59 l-39 0 0 304 c0 264 -2 307 -16 320 -8 9
-22 16 -31 16 -9 0 -60 -44 -114 -97z"/>
<path d="M7264 2227 c-103 -102 -116 -132 -70 -162 29 -19 46 -13 90 34 17 17
33 31 38 31 4 0 8 -101 8 -225 l0 -225 -64 0 c-73 0 -99 -16 -94 -59 5 -41 38
-51 180 -51 143 0 175 8 184 45 9 38 -19 65 -68 65 l-38 0 0 303 c0 282 -1
305 -18 320 -10 10 -27 17 -36 17 -10 0 -60 -42 -112 -93z"/>
<path d="M7890 2309 c-50 -15 -88 -46 -110 -89 -18 -36 -20 -60 -20 -276 0
-226 1 -238 22 -276 68 -121 250 -119 318 2 24 43 25 53 28 242 4 217 -4 283
-43 334 -41 54 -128 82 -195 63z m105 -124 c25 -24 25 -24 25 -240 0 -216 0
-216 -25 -240 -15 -16 -36 -25 -55 -25 -19 0 -40 9 -55 25 -25 24 -25 24 -25
240 0 216 0 216 25 240 15 16 36 25 55 25 19 0 40 -9 55 -25z"/>
<path d="M1230 1876 c0 -2 8 -10 18 -17 15 -13 16 -12 3 4 -13 16 -21 21 -21
13z"/>
<path d="M1280 1816 c0 -2 8 -10 18 -17 15 -13 16 -12 3 4 -13 16 -21 21 -21
13z"/>
<path d="M1350 1735 c13 -14 26 -25 28 -25 3 0 -5 11 -18 25 -13 14 -26 25
-28 25 -3 0 5 -11 18 -25z"/>
<path d="M1515 1560 c44 -44 82 -80 85 -80 2 0 -31 36 -75 80 -44 44 -82 80
-85 80 -2 0 31 -36 75 -80z"/>
<path d="M1670 1416 c0 -2 8 -10 18 -17 15 -13 16 -12 3 4 -13 16 -21 21 -21
13z"/>
<path d="M5504 1268 c-71 -69 -94 -98 -94 -118 0 -60 59 -68 110 -15 19 19 38
35 42 35 5 0 7 -100 6 -222 l-3 -223 -65 -3 c-73 -3 -90 -13 -90 -51 0 -48 12
-51 181 -51 130 0 160 3 173 16 20 19 20 34 0 62 -11 16 -25 22 -55 22 l-39 0
0 303 c0 282 -1 305 -18 320 -10 10 -27 17 -37 17 -10 0 -60 -41 -111 -92z"/>
<path d="M6087 1261 c-53 -54 -97 -102 -97 -107 0 -5 7 -20 16 -32 23 -34 62
-28 106 15 l38 37 0 -227 0 -227 -64 0 c-56 0 -67 -3 -80 -22 -20 -28 -20 -43
0 -62 13 -13 43 -16 173 -16 168 0 181 3 181 50 0 36 -17 50 -62 50 l-38 0 0
298 c0 253 -2 301 -16 320 -28 41 -54 28 -157 -77z"/>
<path d="M6675 1260 c-94 -94 -99 -101 -89 -127 15 -45 62 -44 113 3 l41 36 0
-226 0 -226 -64 0 c-86 0 -114 -27 -86 -81 10 -18 23 -19 173 -19 171 0 187 4
187 44 0 35 -16 49 -62 55 l-43 6 -3 305 c-2 273 -4 306 -19 318 -9 6 -24 12
-33 12 -8 0 -60 -45 -115 -100z"/>
<path d="M7263 1267 c-68 -68 -93 -100 -93 -118 0 -59 59 -66 110 -14 19 19
38 35 42 35 4 0 8 -101 8 -225 l0 -225 -61 0 c-75 0 -99 -12 -99 -48 0 -49 11
-52 187 -52 150 0 163 1 173 19 24 47 -1 81 -61 81 l-39 0 0 304 c0 264 -2
307 -16 320 -31 31 -56 18 -151 -77z"/>
<path d="M7864 1341 c-23 -10 -54 -36 -70 -57 l-29 -37 -3 -241 c-2 -132 0
-251 3 -263 8 -33 65 -94 102 -109 84 -35 185 -2 231 74 27 46 27 50 30 244 4
222 -5 291 -46 340 -54 63 -142 83 -218 49z m133 -113 c23 -21 23 -25 23 -240
l0 -219 -26 -26 c-21 -21 -32 -24 -62 -19 -69 11 -72 21 -72 261 0 200 1 214
21 239 27 34 82 36 116 4z"/>
<path d="M8590 1179 c0 -6 -18 -49 -39 -95 -22 -46 -38 -84 -37 -84 2 0 17 23
34 51 18 27 36 47 42 44 6 -4 10 13 10 44 0 28 -2 51 -5 51 -3 0 -5 -5 -5 -11z"/>
<path d="M8480 950 c-6 -11 -8 -20 -6 -20 3 0 10 9 16 20 6 11 8 20 6 20 -3 0
-10 -9 -16 -20z"/>
<path d="M8339 733 c-13 -16 -12 -17 4 -4 16 13 21 21 13 21 -2 0 -10 -8 -17
-17z"/>
<path d="M8304 688 l-19 -23 23 19 c12 11 22 21 22 23 0 8 -8 2 -26 -19z"/>
<path d="M8249 623 l-24 -28 28 24 c15 14 27 26 27 28 0 8 -8 1 -31 -24z"/>
<path d="M8155 518 l-70 -73 73 70 c67 64 77 75 69 75 -1 0 -34 -33 -72 -72z"/>
<path d="M3968 443 c7 -3 16 -2 19 1 4 3 -2 6 -13 5 -11 0 -14 -3 -6 -6z"/>
<path d="M8044 418 l-29 -33 33 29 c17 17 32 31 32 33 0 8 -8 1 -36 -29z"/>
<path d="M4178 433 c34 -2 88 -2 120 0 31 2 3 3 -63 3 -66 0 -92 -1 -57 -3z"/>
<path d="M7989 373 c-13 -16 -12 -17 4 -4 9 7 17 15 17 17 0 8 -8 3 -21 -13z"/>
<path d="M7899 303 c-13 -16 -12 -17 4 -4 16 13 21 21 13 21 -2 0 -10 -8 -17
-17z"/>
<path d="M7791 235 c-66 -42 -80 -56 -26 -26 40 22 94 61 85 61 -3 0 -29 -16
-59 -35z"/>
<path d="M7640 150 c-90 -47 -246 -109 -315 -126 l-50 -12 82 -1 c59 -1 86 3
96 14 8 8 18 11 22 7 4 -4 5 0 3 8 -2 10 32 32 109 70 62 31 118 61 125 68 18
18 11 15 -72 -28z"/>
<path d="M6463 13 c142 -2 372 -2 510 0 139 1 23 2 -258 2 -280 0 -394 -1
-252 -2z"/>
</g>
</svg>
